<svg xmlns="http://www.w3.org/2000/svg" width="1080" height="540" viewBox="0 0 1080 540" role="img">
<style>text{font-family:Inter,Arial,sans-serif;fill:#17202a} .muted{fill:#64748b}.axis{stroke:#cbd5e1;stroke-width:1}.grid{stroke:#e2e8f0;stroke-width:1}.guard{fill:#2563eb}.light{fill:#f59e0b}.positive{fill:#16a34a}.negative{fill:#dc2626}.line{stroke:#334155;stroke-width:1.5;fill:none}</style>
<text x="20" y="30" font-size="20" font-weight="700">Delta ECDF by Method</text>
<text x="20" y="52" font-size="12" class="muted">Empirical cumulative distribution of paired guardrail deltas</text>
<text x="20" y="84" font-size="11" font-weight="700">Legend</text>
<text x="20" y="108" font-size="11" class="muted">Right of 0 favors guardrailed; left of 0 favors lightweight. Higher y means a larger cumulative share of cases.</text>
<line x1="20" y1="130" x2="58" y2="130" stroke="#334155" stroke-dasharray="4 4"/><text x="68" y="134" font-size="11">zero effect</text>
<line class="axis" x1="120" y1="450" x2="880" y2="450"/>
<line class="axis" x1="120" y1="165" x2="120" y2="450"/>
<line x1="180" y1="130" x2="208" y2="130" stroke="#2563eb" stroke-width="2.5"/><text x="216" y="134" font-size="11">PBAR</text>
<line x1="298" y1="130" x2="326" y2="130" stroke="#16a34a" stroke-width="2.5"/><text x="334" y="134" font-size="11">TBAR</text>
<line x1="416" y1="130" x2="444" y2="130" stroke="#dc2626" stroke-width="2.5"/><text x="452" y="134" font-size="11">EB</text>
<line x1="534" y1="130" x2="562" y2="130" stroke="#7c3aed" stroke-width="2.5"/><text x="570" y="134" font-size="11">SFAM</text>
<line x1="652" y1="130" x2="680" y2="130" stroke="#0891b2" stroke-width="2.5"/><text x="688" y="134" font-size="11">SC</text>
<line x1="770" y1="130" x2="798" y2="130" stroke="#f59e0b" stroke-width="2.5"/><text x="806" y="134" font-size="11">PG</text>
<line class="grid" x1="120.0" y1="165" x2="120.0" y2="450"/>
<text x="120.0" y="468" text-anchor="middle" font-size="10" class="muted">-1.0</text>
<line class="grid" x1="310.0" y1="165" x2="310.0" y2="450"/>
<text x="310.0" y="468" text-anchor="middle" font-size="10" class="muted">-0.5</text>
<line class="grid" x1="500.0" y1="165" x2="500.0" y2="450"/>
<text x="500.0" y="468" text-anchor="middle" font-size="10" class="muted">+0.0</text>
<line class="grid" x1="690.0" y1="165" x2="690.0" y2="450"/>
<text x="690.0" y="468" text-anchor="middle" font-size="10" class="muted">+0.5</text>
<line class="grid" x1="880.0" y1="165" x2="880.0" y2="450"/>
<text x="880.0" y="468" text-anchor="middle" font-size="10" class="muted">+1.0</text>
<line class="grid" x1="120" y1="450.0" x2="880" y2="450.0"/>
<text x="80" y="454.0" font-size="10" class="muted">0%</text>
<line class="grid" x1="120" y1="378.8" x2="880" y2="378.8"/>
<text x="80" y="382.8" font-size="10" class="muted">25%</text>
<line class="grid" x1="120" y1="307.5" x2="880" y2="307.5"/>
<text x="80" y="311.5" font-size="10" class="muted">50%</text>
<line class="grid" x1="120" y1="236.2" x2="880" y2="236.2"/>
<text x="80" y="240.2" font-size="10" class="muted">75%</text>
<line class="grid" x1="120" y1="165.0" x2="880" y2="165.0"/>
<text x="80" y="169.0" font-size="10" class="muted">100%</text>
<line x1="500.0" y1="165" x2="500.0" y2="450" stroke="#334155" stroke-dasharray="4 4"/>
<line x1="476.1" y1="444.2" x2="511.4" y2="438.4" stroke="#2563eb" stroke-width="2"/>
<line x1="511.4" y1="438.4" x2="514.1" y2="432.6" stroke="#2563eb" stroke-width="2"/>
<line x1="514.1" y1="432.6" x2="549.4" y2="426.7" stroke="#2563eb" stroke-width="2"/>
<line x1="549.4" y1="426.7" x2="551.3" y2="420.9" stroke="#2563eb" stroke-width="2"/>
<line x1="551.3" y1="420.9" x2="569.9" y2="415.1" stroke="#2563eb" stroke-width="2"/>
<line x1="569.9" y1="415.1" x2="586.6" y2="409.3" stroke="#2563eb" stroke-width="2"/>
<line x1="586.6" y1="409.3" x2="590.1" y2="403.5" stroke="#2563eb" stroke-width="2"/>
<line x1="590.1" y1="403.5" x2="591.2" y2="397.7" stroke="#2563eb" stroke-width="2"/>
<line x1="591.2" y1="397.7" x2="592.7" y2="391.8" stroke="#2563eb" stroke-width="2"/>
<line x1="592.7" y1="391.8" x2="593.9" y2="386.0" stroke="#2563eb" stroke-width="2"/>
<line x1="593.9" y1="386.0" x2="604.9" y2="380.2" stroke="#2563eb" stroke-width="2"/>
<line x1="604.9" y1="380.2" x2="604.9" y2="374.4" stroke="#2563eb" stroke-width="2"/>
<line x1="604.9" y1="374.4" x2="606.4" y2="368.6" stroke="#2563eb" stroke-width="2"/>
<line x1="606.4" y1="368.6" x2="606.8" y2="362.8" stroke="#2563eb" stroke-width="2"/>
<line x1="606.8" y1="362.8" x2="612.5" y2="356.9" stroke="#2563eb" stroke-width="2"/>
<line x1="612.5" y1="356.9" x2="614.0" y2="351.1" stroke="#2563eb" stroke-width="2"/>
<line x1="614.0" y1="351.1" x2="618.2" y2="345.3" stroke="#2563eb" stroke-width="2"/>
<line x1="618.2" y1="345.3" x2="621.2" y2="339.5" stroke="#2563eb" stroke-width="2"/>
<line x1="621.2" y1="339.5" x2="623.5" y2="333.7" stroke="#2563eb" stroke-width="2"/>
<line x1="623.5" y1="333.7" x2="623.9" y2="327.9" stroke="#2563eb" stroke-width="2"/>
<line x1="623.9" y1="327.9" x2="626.2" y2="322.0" stroke="#2563eb" stroke-width="2"/>
<line x1="626.2" y1="322.0" x2="626.9" y2="316.2" stroke="#2563eb" stroke-width="2"/>
<line x1="626.9" y1="316.2" x2="626.9" y2="310.4" stroke="#2563eb" stroke-width="2"/>
<line x1="626.9" y1="310.4" x2="636.0" y2="304.6" stroke="#2563eb" stroke-width="2"/>
<line x1="636.0" y1="304.6" x2="636.8" y2="298.8" stroke="#2563eb" stroke-width="2"/>
<line x1="636.8" y1="298.8" x2="644.4" y2="293.0" stroke="#2563eb" stroke-width="2"/>
<line x1="644.4" y1="293.0" x2="656.9" y2="287.1" stroke="#2563eb" stroke-width="2"/>
<line x1="656.9" y1="287.1" x2="663.4" y2="281.3" stroke="#2563eb" stroke-width="2"/>
<line x1="663.4" y1="281.3" x2="664.2" y2="275.5" stroke="#2563eb" stroke-width="2"/>
<line x1="664.2" y1="275.5" x2="669.9" y2="269.7" stroke="#2563eb" stroke-width="2"/>
<line x1="669.9" y1="269.7" x2="670.2" y2="263.9" stroke="#2563eb" stroke-width="2"/>
<line x1="670.2" y1="263.9" x2="680.9" y2="258.1" stroke="#2563eb" stroke-width="2"/>
<line x1="680.9" y1="258.1" x2="684.7" y2="252.2" stroke="#2563eb" stroke-width="2"/>
<line x1="684.7" y1="252.2" x2="694.6" y2="246.4" stroke="#2563eb" stroke-width="2"/>
<line x1="694.6" y1="246.4" x2="694.9" y2="240.6" stroke="#2563eb" stroke-width="2"/>
<line x1="694.9" y1="240.6" x2="697.6" y2="234.8" stroke="#2563eb" stroke-width="2"/>
<line x1="697.6" y1="234.8" x2="697.6" y2="229.0" stroke="#2563eb" stroke-width="2"/>
<line x1="697.6" y1="229.0" x2="697.6" y2="223.2" stroke="#2563eb" stroke-width="2"/>
<line x1="697.6" y1="223.2" x2="698.4" y2="217.3" stroke="#2563eb" stroke-width="2"/>
<line x1="698.4" y1="217.3" x2="699.9" y2="211.5" stroke="#2563eb" stroke-width="2"/>
<line x1="699.9" y1="211.5" x2="705.2" y2="205.7" stroke="#2563eb" stroke-width="2"/>
<line x1="705.2" y1="205.7" x2="734.1" y2="199.9" stroke="#2563eb" stroke-width="2"/>
<line x1="734.1" y1="199.9" x2="737.9" y2="194.1" stroke="#2563eb" stroke-width="2"/>
<line x1="737.9" y1="194.1" x2="740.9" y2="188.3" stroke="#2563eb" stroke-width="2"/>
<line x1="740.9" y1="188.3" x2="753.1" y2="182.4" stroke="#2563eb" stroke-width="2"/>
<line x1="753.1" y1="182.4" x2="785.0" y2="176.6" stroke="#2563eb" stroke-width="2"/>
<line x1="785.0" y1="176.6" x2="823.0" y2="170.8" stroke="#2563eb" stroke-width="2"/>
<line x1="823.0" y1="170.8" x2="829.1" y2="165.0" stroke="#2563eb" stroke-width="2"/>
<text x="837.1" y="169.0" font-size="10">PBAR</text>
<line x1="452.1" y1="444.1" x2="458.6" y2="438.1" stroke="#16a34a" stroke-width="2"/>
<line x1="458.6" y1="438.1" x2="465.4" y2="432.2" stroke="#16a34a" stroke-width="2"/>
<line x1="465.4" y1="432.2" x2="465.8" y2="426.2" stroke="#16a34a" stroke-width="2"/>
<line x1="465.8" y1="426.2" x2="470.7" y2="420.3" stroke="#16a34a" stroke-width="2"/>
<line x1="470.7" y1="420.3" x2="485.9" y2="414.4" stroke="#16a34a" stroke-width="2"/>
<line x1="485.9" y1="414.4" x2="492.4" y2="408.4" stroke="#16a34a" stroke-width="2"/>
<line x1="492.4" y1="408.4" x2="503.8" y2="402.5" stroke="#16a34a" stroke-width="2"/>
<line x1="503.8" y1="402.5" x2="512.5" y2="396.6" stroke="#16a34a" stroke-width="2"/>
<line x1="512.5" y1="396.6" x2="513.3" y2="390.6" stroke="#16a34a" stroke-width="2"/>
<line x1="513.3" y1="390.6" x2="514.8" y2="384.7" stroke="#16a34a" stroke-width="2"/>
<line x1="514.8" y1="384.7" x2="515.2" y2="378.8" stroke="#16a34a" stroke-width="2"/>
<line x1="515.2" y1="378.8" x2="515.2" y2="372.8" stroke="#16a34a" stroke-width="2"/>
<line x1="515.2" y1="372.8" x2="517.5" y2="366.9" stroke="#16a34a" stroke-width="2"/>
<line x1="517.5" y1="366.9" x2="519.0" y2="360.9" stroke="#16a34a" stroke-width="2"/>
<line x1="519.0" y1="360.9" x2="522.0" y2="355.0" stroke="#16a34a" stroke-width="2"/>
<line x1="522.0" y1="355.0" x2="524.3" y2="349.1" stroke="#16a34a" stroke-width="2"/>
<line x1="524.3" y1="349.1" x2="524.3" y2="343.1" stroke="#16a34a" stroke-width="2"/>
<line x1="524.3" y1="343.1" x2="526.6" y2="337.2" stroke="#16a34a" stroke-width="2"/>
<line x1="526.6" y1="337.2" x2="530.4" y2="331.2" stroke="#16a34a" stroke-width="2"/>
<line x1="530.4" y1="331.2" x2="532.3" y2="325.3" stroke="#16a34a" stroke-width="2"/>
<line x1="532.3" y1="325.3" x2="533.1" y2="319.4" stroke="#16a34a" stroke-width="2"/>
<line x1="533.1" y1="319.4" x2="533.4" y2="313.4" stroke="#16a34a" stroke-width="2"/>
<line x1="533.4" y1="313.4" x2="536.1" y2="307.5" stroke="#16a34a" stroke-width="2"/>
<line x1="536.1" y1="307.5" x2="537.2" y2="301.6" stroke="#16a34a" stroke-width="2"/>
<line x1="537.2" y1="301.6" x2="539.9" y2="295.6" stroke="#16a34a" stroke-width="2"/>
<line x1="539.9" y1="295.6" x2="541.8" y2="289.7" stroke="#16a34a" stroke-width="2"/>
<line x1="541.8" y1="289.7" x2="557.0" y2="283.8" stroke="#16a34a" stroke-width="2"/>
<line x1="557.0" y1="283.8" x2="558.1" y2="277.8" stroke="#16a34a" stroke-width="2"/>
<line x1="558.1" y1="277.8" x2="560.8" y2="271.9" stroke="#16a34a" stroke-width="2"/>
<line x1="560.8" y1="271.9" x2="564.6" y2="265.9" stroke="#16a34a" stroke-width="2"/>
<line x1="564.6" y1="265.9" x2="571.4" y2="260.0" stroke="#16a34a" stroke-width="2"/>
<line x1="571.4" y1="260.0" x2="581.3" y2="254.1" stroke="#16a34a" stroke-width="2"/>
<line x1="581.3" y1="254.1" x2="583.2" y2="248.1" stroke="#16a34a" stroke-width="2"/>
<line x1="583.2" y1="248.1" x2="588.9" y2="242.2" stroke="#16a34a" stroke-width="2"/>
<line x1="588.9" y1="242.2" x2="607.5" y2="236.2" stroke="#16a34a" stroke-width="2"/>
<line x1="607.5" y1="236.2" x2="622.7" y2="230.3" stroke="#16a34a" stroke-width="2"/>
<line x1="622.7" y1="230.3" x2="634.1" y2="224.4" stroke="#16a34a" stroke-width="2"/>
<line x1="634.1" y1="224.4" x2="644.4" y2="218.4" stroke="#16a34a" stroke-width="2"/>
<line x1="644.4" y1="218.4" x2="695.7" y2="212.5" stroke="#16a34a" stroke-width="2"/>
<line x1="695.7" y1="212.5" x2="711.3" y2="206.6" stroke="#16a34a" stroke-width="2"/>
<line x1="711.3" y1="206.6" x2="713.6" y2="200.6" stroke="#16a34a" stroke-width="2"/>
<line x1="713.6" y1="200.6" x2="734.5" y2="194.7" stroke="#16a34a" stroke-width="2"/>
<line x1="734.5" y1="194.7" x2="754.6" y2="188.8" stroke="#16a34a" stroke-width="2"/>
<line x1="754.6" y1="188.8" x2="861.0" y2="182.8" stroke="#16a34a" stroke-width="2"/>
<line x1="861.0" y1="182.8" x2="862.1" y2="176.9" stroke="#16a34a" stroke-width="2"/>
<line x1="862.1" y1="176.9" x2="872.4" y2="170.9" stroke="#16a34a" stroke-width="2"/>
<line x1="872.4" y1="170.9" x2="873.2" y2="165.0" stroke="#16a34a" stroke-width="2"/>
<text x="881.2" y="169.0" font-size="10">TBAR</text>
<line x1="381.4" y1="443.9" x2="409.6" y2="437.9" stroke="#dc2626" stroke-width="2"/>
<line x1="409.6" y1="437.9" x2="420.2" y2="431.8" stroke="#dc2626" stroke-width="2"/>
<line x1="420.2" y1="431.8" x2="427.8" y2="425.7" stroke="#dc2626" stroke-width="2"/>
<line x1="427.8" y1="425.7" x2="437.3" y2="419.7" stroke="#dc2626" stroke-width="2"/>
<line x1="437.3" y1="419.7" x2="443.0" y2="413.6" stroke="#dc2626" stroke-width="2"/>
<line x1="443.0" y1="413.6" x2="473.4" y2="407.6" stroke="#dc2626" stroke-width="2"/>
<line x1="473.4" y1="407.6" x2="480.6" y2="401.5" stroke="#dc2626" stroke-width="2"/>
<line x1="480.6" y1="401.5" x2="490.5" y2="395.4" stroke="#dc2626" stroke-width="2"/>
<line x1="490.5" y1="395.4" x2="495.4" y2="389.4" stroke="#dc2626" stroke-width="2"/>
<line x1="495.4" y1="389.4" x2="500.0" y2="383.3" stroke="#dc2626" stroke-width="2"/>
<line x1="500.0" y1="383.3" x2="500.0" y2="377.2" stroke="#dc2626" stroke-width="2"/>
<line x1="500.0" y1="377.2" x2="500.0" y2="371.2" stroke="#dc2626" stroke-width="2"/>
<line x1="500.0" y1="371.2" x2="500.0" y2="365.1" stroke="#dc2626" stroke-width="2"/>
<line x1="500.0" y1="365.1" x2="500.0" y2="359.0" stroke="#dc2626" stroke-width="2"/>
<line x1="500.0" y1="359.0" x2="507.6" y2="353.0" stroke="#dc2626" stroke-width="2"/>
<line x1="507.6" y1="353.0" x2="507.6" y2="346.9" stroke="#dc2626" stroke-width="2"/>
<line x1="507.6" y1="346.9" x2="523.6" y2="340.9" stroke="#dc2626" stroke-width="2"/>
<line x1="523.6" y1="340.9" x2="526.6" y2="334.8" stroke="#dc2626" stroke-width="2"/>
<line x1="526.6" y1="334.8" x2="528.5" y2="328.7" stroke="#dc2626" stroke-width="2"/>
<line x1="528.5" y1="328.7" x2="528.5" y2="322.7" stroke="#dc2626" stroke-width="2"/>
<line x1="528.5" y1="322.7" x2="528.5" y2="316.6" stroke="#dc2626" stroke-width="2"/>
<line x1="528.5" y1="316.6" x2="528.9" y2="310.5" stroke="#dc2626" stroke-width="2"/>
<line x1="528.9" y1="310.5" x2="533.1" y2="304.5" stroke="#dc2626" stroke-width="2"/>
<line x1="533.1" y1="304.5" x2="538.0" y2="298.4" stroke="#dc2626" stroke-width="2"/>
<line x1="538.0" y1="298.4" x2="542.6" y2="292.3" stroke="#dc2626" stroke-width="2"/>
<line x1="542.6" y1="292.3" x2="552.4" y2="286.3" stroke="#dc2626" stroke-width="2"/>
<line x1="552.4" y1="286.3" x2="552.4" y2="280.2" stroke="#dc2626" stroke-width="2"/>
<line x1="552.4" y1="280.2" x2="556.6" y2="274.1" stroke="#dc2626" stroke-width="2"/>
<line x1="556.6" y1="274.1" x2="570.3" y2="268.1" stroke="#dc2626" stroke-width="2"/>
<line x1="570.3" y1="268.1" x2="570.3" y2="262.0" stroke="#dc2626" stroke-width="2"/>
<line x1="570.3" y1="262.0" x2="576.0" y2="256.0" stroke="#dc2626" stroke-width="2"/>
<line x1="576.0" y1="256.0" x2="586.3" y2="249.9" stroke="#dc2626" stroke-width="2"/>
<line x1="586.3" y1="249.9" x2="588.2" y2="243.8" stroke="#dc2626" stroke-width="2"/>
<line x1="588.2" y1="243.8" x2="595.0" y2="237.8" stroke="#dc2626" stroke-width="2"/>
<line x1="595.0" y1="237.8" x2="595.8" y2="231.7" stroke="#dc2626" stroke-width="2"/>
<line x1="595.8" y1="231.7" x2="605.3" y2="225.6" stroke="#dc2626" stroke-width="2"/>
<line x1="605.3" y1="225.6" x2="621.6" y2="219.6" stroke="#dc2626" stroke-width="2"/>
<line x1="621.6" y1="219.6" x2="622.4" y2="213.5" stroke="#dc2626" stroke-width="2"/>
<line x1="622.4" y1="213.5" x2="627.3" y2="207.4" stroke="#dc2626" stroke-width="2"/>
<line x1="627.3" y1="207.4" x2="642.5" y2="201.4" stroke="#dc2626" stroke-width="2"/>
<line x1="642.5" y1="201.4" x2="652.0" y2="195.3" stroke="#dc2626" stroke-width="2"/>
<line x1="652.0" y1="195.3" x2="658.5" y2="189.3" stroke="#dc2626" stroke-width="2"/>
<line x1="658.5" y1="189.3" x2="682.4" y2="183.2" stroke="#dc2626" stroke-width="2"/>
<line x1="682.4" y1="183.2" x2="690.0" y2="177.1" stroke="#dc2626" stroke-width="2"/>
<line x1="690.0" y1="177.1" x2="745.1" y2="171.1" stroke="#dc2626" stroke-width="2"/>
<line x1="745.1" y1="171.1" x2="796.4" y2="165.0" stroke="#dc2626" stroke-width="2"/>
<text x="804.4" y="169.0" font-size="10">EB</text>
<line x1="372.7" y1="444.2" x2="375.7" y2="438.4" stroke="#7c3aed" stroke-width="2"/>
<line x1="375.7" y1="438.4" x2="417.2" y2="432.6" stroke="#7c3aed" stroke-width="2"/>
<line x1="417.2" y1="432.6" x2="423.2" y2="426.7" stroke="#7c3aed" stroke-width="2"/>
<line x1="423.2" y1="426.7" x2="457.1" y2="420.9" stroke="#7c3aed" stroke-width="2"/>
<line x1="457.1" y1="420.9" x2="462.0" y2="415.1" stroke="#7c3aed" stroke-width="2"/>
<line x1="462.0" y1="415.1" x2="477.2" y2="409.3" stroke="#7c3aed" stroke-width="2"/>
<line x1="477.2" y1="409.3" x2="477.2" y2="403.5" stroke="#7c3aed" stroke-width="2"/>
<line x1="477.2" y1="403.5" x2="487.1" y2="397.7" stroke="#7c3aed" stroke-width="2"/>
<line x1="487.1" y1="397.7" x2="489.4" y2="391.8" stroke="#7c3aed" stroke-width="2"/>
<line x1="489.4" y1="391.8" x2="489.7" y2="386.0" stroke="#7c3aed" stroke-width="2"/>
<line x1="489.7" y1="386.0" x2="490.1" y2="380.2" stroke="#7c3aed" stroke-width="2"/>
<line x1="490.1" y1="380.2" x2="494.3" y2="374.4" stroke="#7c3aed" stroke-width="2"/>
<line x1="494.3" y1="374.4" x2="494.3" y2="368.6" stroke="#7c3aed" stroke-width="2"/>
<line x1="494.3" y1="368.6" x2="498.1" y2="362.8" stroke="#7c3aed" stroke-width="2"/>
<line x1="498.1" y1="362.8" x2="502.7" y2="356.9" stroke="#7c3aed" stroke-width="2"/>
<line x1="502.7" y1="356.9" x2="503.0" y2="351.1" stroke="#7c3aed" stroke-width="2"/>
<line x1="503.0" y1="351.1" x2="503.0" y2="345.3" stroke="#7c3aed" stroke-width="2"/>
<line x1="503.0" y1="345.3" x2="503.0" y2="339.5" stroke="#7c3aed" stroke-width="2"/>
<line x1="503.0" y1="339.5" x2="504.9" y2="333.7" stroke="#7c3aed" stroke-width="2"/>
<line x1="504.9" y1="333.7" x2="504.9" y2="327.9" stroke="#7c3aed" stroke-width="2"/>
<line x1="504.9" y1="327.9" x2="505.3" y2="322.0" stroke="#7c3aed" stroke-width="2"/>
<line x1="505.3" y1="322.0" x2="505.7" y2="316.2" stroke="#7c3aed" stroke-width="2"/>
<line x1="505.7" y1="316.2" x2="506.8" y2="310.4" stroke="#7c3aed" stroke-width="2"/>
<line x1="506.8" y1="310.4" x2="506.8" y2="304.6" stroke="#7c3aed" stroke-width="2"/>
<line x1="506.8" y1="304.6" x2="507.6" y2="298.8" stroke="#7c3aed" stroke-width="2"/>
<line x1="507.6" y1="298.8" x2="507.6" y2="293.0" stroke="#7c3aed" stroke-width="2"/>
<line x1="507.6" y1="293.0" x2="507.6" y2="287.1" stroke="#7c3aed" stroke-width="2"/>
<line x1="507.6" y1="287.1" x2="508.7" y2="281.3" stroke="#7c3aed" stroke-width="2"/>
<line x1="508.7" y1="281.3" x2="511.8" y2="275.5" stroke="#7c3aed" stroke-width="2"/>
<line x1="511.8" y1="275.5" x2="515.6" y2="269.7" stroke="#7c3aed" stroke-width="2"/>
<line x1="515.6" y1="269.7" x2="517.9" y2="263.9" stroke="#7c3aed" stroke-width="2"/>
<line x1="517.9" y1="263.9" x2="519.0" y2="258.1" stroke="#7c3aed" stroke-width="2"/>
<line x1="519.0" y1="258.1" x2="520.9" y2="252.2" stroke="#7c3aed" stroke-width="2"/>
<line x1="520.9" y1="252.2" x2="525.5" y2="246.4" stroke="#7c3aed" stroke-width="2"/>
<line x1="525.5" y1="246.4" x2="528.9" y2="240.6" stroke="#7c3aed" stroke-width="2"/>
<line x1="528.9" y1="240.6" x2="530.4" y2="234.8" stroke="#7c3aed" stroke-width="2"/>
<line x1="530.4" y1="234.8" x2="530.8" y2="229.0" stroke="#7c3aed" stroke-width="2"/>
<line x1="530.8" y1="229.0" x2="534.6" y2="223.2" stroke="#7c3aed" stroke-width="2"/>
<line x1="534.6" y1="223.2" x2="541.8" y2="217.3" stroke="#7c3aed" stroke-width="2"/>
<line x1="541.8" y1="217.3" x2="542.6" y2="211.5" stroke="#7c3aed" stroke-width="2"/>
<line x1="542.6" y1="211.5" x2="559.3" y2="205.7" stroke="#7c3aed" stroke-width="2"/>
<line x1="559.3" y1="205.7" x2="559.7" y2="199.9" stroke="#7c3aed" stroke-width="2"/>
<line x1="559.7" y1="199.9" x2="583.6" y2="194.1" stroke="#7c3aed" stroke-width="2"/>
<line x1="583.6" y1="194.1" x2="591.2" y2="188.3" stroke="#7c3aed" stroke-width="2"/>
<line x1="591.2" y1="188.3" x2="592.0" y2="182.4" stroke="#7c3aed" stroke-width="2"/>
<line x1="592.0" y1="182.4" x2="609.8" y2="176.6" stroke="#7c3aed" stroke-width="2"/>
<line x1="609.8" y1="176.6" x2="615.9" y2="170.8" stroke="#7c3aed" stroke-width="2"/>
<line x1="615.9" y1="170.8" x2="759.9" y2="165.0" stroke="#7c3aed" stroke-width="2"/>
<text x="767.9" y="169.0" font-size="10">SFAM</text>
<line x1="479.5" y1="444.3" x2="484.8" y2="438.6" stroke="#0891b2" stroke-width="2"/>
<line x1="484.8" y1="438.6" x2="490.9" y2="432.9" stroke="#0891b2" stroke-width="2"/>
<line x1="490.9" y1="432.9" x2="496.2" y2="427.2" stroke="#0891b2" stroke-width="2"/>
<line x1="496.2" y1="427.2" x2="496.6" y2="421.5" stroke="#0891b2" stroke-width="2"/>
<line x1="496.6" y1="421.5" x2="500.0" y2="415.8" stroke="#0891b2" stroke-width="2"/>
<line x1="500.0" y1="415.8" x2="505.7" y2="410.1" stroke="#0891b2" stroke-width="2"/>
<line x1="505.7" y1="410.1" x2="515.2" y2="404.4" stroke="#0891b2" stroke-width="2"/>
<line x1="515.2" y1="404.4" x2="534.2" y2="398.7" stroke="#0891b2" stroke-width="2"/>
<line x1="534.2" y1="398.7" x2="555.5" y2="393.0" stroke="#0891b2" stroke-width="2"/>
<line x1="555.5" y1="393.0" x2="585.9" y2="387.3" stroke="#0891b2" stroke-width="2"/>
<line x1="585.9" y1="387.3" x2="595.0" y2="381.6" stroke="#0891b2" stroke-width="2"/>
<line x1="595.0" y1="381.6" x2="598.8" y2="375.9" stroke="#0891b2" stroke-width="2"/>
<line x1="598.8" y1="375.9" x2="617.8" y2="370.2" stroke="#0891b2" stroke-width="2"/>
<line x1="617.8" y1="370.2" x2="644.4" y2="364.5" stroke="#0891b2" stroke-width="2"/>
<line x1="644.4" y1="364.5" x2="649.7" y2="358.8" stroke="#0891b2" stroke-width="2"/>
<line x1="649.7" y1="358.8" x2="667.2" y2="353.1" stroke="#0891b2" stroke-width="2"/>
<line x1="667.2" y1="353.1" x2="669.1" y2="347.4" stroke="#0891b2" stroke-width="2"/>
<line x1="669.1" y1="347.4" x2="672.1" y2="341.7" stroke="#0891b2" stroke-width="2"/>
<line x1="672.1" y1="341.7" x2="677.8" y2="336.0" stroke="#0891b2" stroke-width="2"/>
<line x1="677.8" y1="336.0" x2="678.6" y2="330.3" stroke="#0891b2" stroke-width="2"/>
<line x1="678.6" y1="330.3" x2="683.2" y2="324.6" stroke="#0891b2" stroke-width="2"/>
<line x1="683.2" y1="324.6" x2="690.0" y2="318.9" stroke="#0891b2" stroke-width="2"/>
<line x1="690.0" y1="318.9" x2="701.4" y2="313.2" stroke="#0891b2" stroke-width="2"/>
<line x1="701.4" y1="313.2" x2="709.0" y2="307.5" stroke="#0891b2" stroke-width="2"/>
<line x1="709.0" y1="307.5" x2="710.5" y2="301.8" stroke="#0891b2" stroke-width="2"/>
<line x1="710.5" y1="301.8" x2="725.3" y2="296.1" stroke="#0891b2" stroke-width="2"/>
<line x1="725.3" y1="296.1" x2="725.3" y2="290.4" stroke="#0891b2" stroke-width="2"/>
<line x1="725.3" y1="290.4" x2="726.1" y2="284.7" stroke="#0891b2" stroke-width="2"/>
<line x1="726.1" y1="284.7" x2="739.0" y2="279.0" stroke="#0891b2" stroke-width="2"/>
<line x1="739.0" y1="279.0" x2="743.2" y2="273.3" stroke="#0891b2" stroke-width="2"/>
<line x1="743.2" y1="273.3" x2="751.2" y2="267.6" stroke="#0891b2" stroke-width="2"/>
<line x1="751.2" y1="267.6" x2="756.5" y2="261.9" stroke="#0891b2" stroke-width="2"/>
<line x1="756.5" y1="261.9" x2="758.0" y2="256.2" stroke="#0891b2" stroke-width="2"/>
<line x1="758.0" y1="256.2" x2="761.4" y2="250.5" stroke="#0891b2" stroke-width="2"/>
<line x1="761.4" y1="250.5" x2="763.0" y2="244.8" stroke="#0891b2" stroke-width="2"/>
<line x1="763.0" y1="244.8" x2="763.3" y2="239.1" stroke="#0891b2" stroke-width="2"/>
<line x1="763.3" y1="239.1" x2="763.7" y2="233.4" stroke="#0891b2" stroke-width="2"/>
<line x1="763.7" y1="233.4" x2="765.2" y2="227.7" stroke="#0891b2" stroke-width="2"/>
<line x1="765.2" y1="227.7" x2="766.0" y2="222.0" stroke="#0891b2" stroke-width="2"/>
<line x1="766.0" y1="222.0" x2="768.7" y2="216.3" stroke="#0891b2" stroke-width="2"/>
<line x1="768.7" y1="216.3" x2="769.8" y2="210.6" stroke="#0891b2" stroke-width="2"/>
<line x1="769.8" y1="210.6" x2="774.0" y2="204.9" stroke="#0891b2" stroke-width="2"/>
<line x1="774.0" y1="204.9" x2="781.2" y2="199.2" stroke="#0891b2" stroke-width="2"/>
<line x1="781.2" y1="199.2" x2="782.7" y2="193.5" stroke="#0891b2" stroke-width="2"/>
<line x1="782.7" y1="193.5" x2="789.6" y2="187.8" stroke="#0891b2" stroke-width="2"/>
<line x1="789.6" y1="187.8" x2="796.4" y2="182.1" stroke="#0891b2" stroke-width="2"/>
<line x1="796.4" y1="182.1" x2="796.4" y2="176.4" stroke="#0891b2" stroke-width="2"/>
<line x1="796.4" y1="176.4" x2="808.6" y2="170.7" stroke="#0891b2" stroke-width="2"/>
<line x1="808.6" y1="170.7" x2="810.5" y2="165.0" stroke="#0891b2" stroke-width="2"/>
<text x="818.5" y="169.0" font-size="10">SC</text>
<line x1="372.3" y1="444.3" x2="452.9" y2="438.6" stroke="#f59e0b" stroke-width="2"/>
<line x1="452.9" y1="438.6" x2="455.9" y2="432.9" stroke="#f59e0b" stroke-width="2"/>
<line x1="455.9" y1="432.9" x2="538.0" y2="427.2" stroke="#f59e0b" stroke-width="2"/>
<line x1="538.0" y1="427.2" x2="551.7" y2="421.5" stroke="#f59e0b" stroke-width="2"/>
<line x1="551.7" y1="421.5" x2="564.6" y2="415.8" stroke="#f59e0b" stroke-width="2"/>
<line x1="564.6" y1="415.8" x2="576.0" y2="410.1" stroke="#f59e0b" stroke-width="2"/>
<line x1="576.0" y1="410.1" x2="588.9" y2="404.4" stroke="#f59e0b" stroke-width="2"/>
<line x1="588.9" y1="404.4" x2="611.3" y2="398.7" stroke="#f59e0b" stroke-width="2"/>
<line x1="611.3" y1="398.7" x2="623.5" y2="393.0" stroke="#f59e0b" stroke-width="2"/>
<line x1="623.5" y1="393.0" x2="625.0" y2="387.3" stroke="#f59e0b" stroke-width="2"/>
<line x1="625.0" y1="387.3" x2="636.0" y2="381.6" stroke="#f59e0b" stroke-width="2"/>
<line x1="636.0" y1="381.6" x2="641.7" y2="375.9" stroke="#f59e0b" stroke-width="2"/>
<line x1="641.7" y1="375.9" x2="663.4" y2="370.2" stroke="#f59e0b" stroke-width="2"/>
<line x1="663.4" y1="370.2" x2="668.3" y2="364.5" stroke="#f59e0b" stroke-width="2"/>
<line x1="668.3" y1="364.5" x2="674.8" y2="358.8" stroke="#f59e0b" stroke-width="2"/>
<line x1="674.8" y1="358.8" x2="674.8" y2="353.1" stroke="#f59e0b" stroke-width="2"/>
<line x1="674.8" y1="353.1" x2="682.8" y2="347.4" stroke="#f59e0b" stroke-width="2"/>
<line x1="682.8" y1="347.4" x2="685.4" y2="341.7" stroke="#f59e0b" stroke-width="2"/>
<line x1="685.4" y1="341.7" x2="694.9" y2="336.0" stroke="#f59e0b" stroke-width="2"/>
<line x1="694.9" y1="336.0" x2="696.1" y2="330.3" stroke="#f59e0b" stroke-width="2"/>
<line x1="696.1" y1="330.3" x2="703.3" y2="324.6" stroke="#f59e0b" stroke-width="2"/>
<line x1="703.3" y1="324.6" x2="708.2" y2="318.9" stroke="#f59e0b" stroke-width="2"/>
<line x1="708.2" y1="318.9" x2="708.6" y2="313.2" stroke="#f59e0b" stroke-width="2"/>
<line x1="708.6" y1="313.2" x2="713.6" y2="307.5" stroke="#f59e0b" stroke-width="2"/>
<line x1="713.6" y1="307.5" x2="718.5" y2="301.8" stroke="#f59e0b" stroke-width="2"/>
<line x1="718.5" y1="301.8" x2="725.3" y2="296.1" stroke="#f59e0b" stroke-width="2"/>
<line x1="725.3" y1="296.1" x2="725.7" y2="290.4" stroke="#f59e0b" stroke-width="2"/>
<line x1="725.7" y1="290.4" x2="735.6" y2="284.7" stroke="#f59e0b" stroke-width="2"/>
<line x1="735.6" y1="284.7" x2="738.3" y2="279.0" stroke="#f59e0b" stroke-width="2"/>
<line x1="738.3" y1="279.0" x2="746.6" y2="273.3" stroke="#f59e0b" stroke-width="2"/>
<line x1="746.6" y1="273.3" x2="755.0" y2="267.6" stroke="#f59e0b" stroke-width="2"/>
<line x1="755.0" y1="267.6" x2="756.9" y2="261.9" stroke="#f59e0b" stroke-width="2"/>
<line x1="756.9" y1="261.9" x2="762.2" y2="256.2" stroke="#f59e0b" stroke-width="2"/>
<line x1="762.2" y1="256.2" x2="765.6" y2="250.5" stroke="#f59e0b" stroke-width="2"/>
<line x1="765.6" y1="250.5" x2="766.0" y2="244.8" stroke="#f59e0b" stroke-width="2"/>
<line x1="766.0" y1="244.8" x2="769.8" y2="239.1" stroke="#f59e0b" stroke-width="2"/>
<line x1="769.8" y1="239.1" x2="775.1" y2="233.4" stroke="#f59e0b" stroke-width="2"/>
<line x1="775.1" y1="233.4" x2="776.3" y2="227.7" stroke="#f59e0b" stroke-width="2"/>
<line x1="776.3" y1="227.7" x2="777.4" y2="222.0" stroke="#f59e0b" stroke-width="2"/>
<line x1="777.4" y1="222.0" x2="778.5" y2="216.3" stroke="#f59e0b" stroke-width="2"/>
<line x1="778.5" y1="216.3" x2="780.4" y2="210.6" stroke="#f59e0b" stroke-width="2"/>
<line x1="780.4" y1="210.6" x2="795.6" y2="204.9" stroke="#f59e0b" stroke-width="2"/>
<line x1="795.6" y1="204.9" x2="796.4" y2="199.2" stroke="#f59e0b" stroke-width="2"/>
<line x1="796.4" y1="199.2" x2="797.2" y2="193.5" stroke="#f59e0b" stroke-width="2"/>
<line x1="797.2" y1="193.5" x2="799.8" y2="187.8" stroke="#f59e0b" stroke-width="2"/>
<line x1="799.8" y1="187.8" x2="815.4" y2="182.1" stroke="#f59e0b" stroke-width="2"/>
<line x1="815.4" y1="182.1" x2="832.9" y2="176.4" stroke="#f59e0b" stroke-width="2"/>
<line x1="832.9" y1="176.4" x2="838.2" y2="170.7" stroke="#f59e0b" stroke-width="2"/>
<line x1="838.2" y1="170.7" x2="857.2" y2="165.0" stroke="#f59e0b" stroke-width="2"/>
<text x="865.2" y="169.0" font-size="10">PG</text>
<text x="500.0" y="512" text-anchor="middle" font-size="12">Paired delta (guardrailed minus lightweight)</text>
<text x="112" y="151" text-anchor="end" font-size="12">Cumulative share</text>
</svg>
