<svg xmlns="http://www.w3.org/2000/svg" width="860" height="460" viewBox="0 0 860 460" role="img">
<style>text{font-family:Inter,Arial,sans-serif;fill:#17202a} .muted{fill:#64748b}.axis{stroke:#cbd5e1;stroke-width:1}.grid{stroke:#e2e8f0;stroke-width:1}.guard{fill:#2563eb}.light{fill:#f59e0b}.positive{fill:#16a34a}.negative{fill:#dc2626}.line{stroke:#334155;stroke-width:1.5;fill:none}</style>
<text x="20" y="30" font-size="20" font-weight="700">Epistemic Boundary Topic-Profile Fit vs Score</text>
<text x="20" y="52" font-size="12" class="muted">Each point is an Epistemic Boundary answer with available pairwise metrics</text>
<line class="axis" x1="90" y1="378" x2="700" y2="378"/>
<line class="axis" x1="90" y1="88" x2="90" y2="378"/>
<line class="grid" x1="90.0" y1="88" x2="90.0" y2="378"/>
<line class="grid" x1="90" y1="378.0" x2="700" y2="378.0"/>
<text x="90.0" y="396" text-anchor="middle" font-size="10" class="muted">0%</text>
<text x="52" y="382.0" font-size="10" class="muted">0%</text>
<line class="grid" x1="242.5" y1="88" x2="242.5" y2="378"/>
<line class="grid" x1="90" y1="305.5" x2="700" y2="305.5"/>
<text x="242.5" y="396" text-anchor="middle" font-size="10" class="muted">25%</text>
<text x="52" y="309.5" font-size="10" class="muted">25%</text>
<line class="grid" x1="395.0" y1="88" x2="395.0" y2="378"/>
<line class="grid" x1="90" y1="233.0" x2="700" y2="233.0"/>
<text x="395.0" y="396" text-anchor="middle" font-size="10" class="muted">50%</text>
<text x="52" y="237.0" font-size="10" class="muted">50%</text>
<line class="grid" x1="547.5" y1="88" x2="547.5" y2="378"/>
<line class="grid" x1="90" y1="160.5" x2="700" y2="160.5"/>
<text x="547.5" y="396" text-anchor="middle" font-size="10" class="muted">75%</text>
<text x="52" y="164.5" font-size="10" class="muted">75%</text>
<line class="grid" x1="700.0" y1="88" x2="700.0" y2="378"/>
<line class="grid" x1="90" y1="88.0" x2="700" y2="88.0"/>
<text x="700.0" y="396" text-anchor="middle" font-size="10" class="muted">100%</text>
<text x="52" y="92.0" font-size="10" class="muted">100%</text>
<circle cx="212.0" cy="190.9" r="5" fill="#2563eb" opacity="0.75"/>
<circle cx="90.0" cy="330.1" r="5" fill="#f59e0b" opacity="0.75"/>
<circle cx="639.0" cy="218.5" r="5" fill="#2563eb" opacity="0.75"/>
<circle cx="639.0" cy="163.4" r="5" fill="#f59e0b" opacity="0.75"/>
<circle cx="395.0" cy="189.5" r="5" fill="#2563eb" opacity="0.75"/>
<circle cx="395.0" cy="247.5" r="5" fill="#f59e0b" opacity="0.75"/>
<circle cx="639.0" cy="163.4" r="5" fill="#2563eb" opacity="0.75"/>
<circle cx="639.0" cy="163.4" r="5" fill="#f59e0b" opacity="0.75"/>
<circle cx="639.0" cy="186.6" r="5" fill="#2563eb" opacity="0.75"/>
<circle cx="639.0" cy="208.4" r="5" fill="#f59e0b" opacity="0.75"/>
<circle cx="700.0" cy="193.0" r="5" fill="#2563eb" opacity="0.75"/>
<circle cx="700.0" cy="189.5" r="5" fill="#f59e0b" opacity="0.75"/>
<circle cx="273.0" cy="291.0" r="5" fill="#2563eb" opacity="0.75"/>
<circle cx="212.0" cy="320.0" r="5" fill="#f59e0b" opacity="0.75"/>
<circle cx="517.0" cy="193.3" r="5" fill="#2563eb" opacity="0.75"/>
<circle cx="395.0" cy="225.8" r="5" fill="#f59e0b" opacity="0.75"/>
<circle cx="273.0" cy="176.5" r="5" fill="#2563eb" opacity="0.75"/>
<circle cx="212.0" cy="256.8" r="5" fill="#f59e0b" opacity="0.75"/>
<circle cx="212.0" cy="320.0" r="5" fill="#2563eb" opacity="0.75"/>
<circle cx="212.0" cy="320.0" r="5" fill="#f59e0b" opacity="0.75"/>
<circle cx="578.0" cy="247.5" r="5" fill="#2563eb" opacity="0.75"/>
<circle cx="212.0" cy="269.2" r="5" fill="#f59e0b" opacity="0.75"/>
<circle cx="242.5" cy="305.5" r="5" fill="#2563eb" opacity="0.75"/>
<circle cx="90.0" cy="378.0" r="5" fill="#f59e0b" opacity="0.75"/>
<circle cx="212.0" cy="320.0" r="5" fill="#2563eb" opacity="0.75"/>
<circle cx="212.0" cy="320.0" r="5" fill="#f59e0b" opacity="0.75"/>
<circle cx="700.0" cy="182.2" r="5" fill="#2563eb" opacity="0.75"/>
<circle cx="700.0" cy="175.0" r="5" fill="#f59e0b" opacity="0.75"/>
<circle cx="700.0" cy="177.9" r="5" fill="#2563eb" opacity="0.75"/>
<circle cx="90.0" cy="251.0" r="5" fill="#f59e0b" opacity="0.75"/>
<circle cx="700.0" cy="237.3" r="5" fill="#2563eb" opacity="0.75"/>
<circle cx="700.0" cy="189.5" r="5" fill="#f59e0b" opacity="0.75"/>
<circle cx="90.0" cy="323.5" r="5" fill="#2563eb" opacity="0.75"/>
<circle cx="90.0" cy="345.5" r="5" fill="#f59e0b" opacity="0.75"/>
<circle cx="212.0" cy="193.3" r="5" fill="#2563eb" opacity="0.75"/>
<circle cx="90.0" cy="236.5" r="5" fill="#f59e0b" opacity="0.75"/>
<circle cx="90.0" cy="378.0" r="5" fill="#2563eb" opacity="0.75"/>
<circle cx="90.0" cy="378.0" r="5" fill="#f59e0b" opacity="0.75"/>
<circle cx="639.0" cy="193.3" r="5" fill="#2563eb" opacity="0.75"/>
<circle cx="212.0" cy="302.0" r="5" fill="#f59e0b" opacity="0.75"/>
<circle cx="212.0" cy="144.0" r="5" fill="#2563eb" opacity="0.75"/>
<circle cx="212.0" cy="264.9" r="5" fill="#f59e0b" opacity="0.75"/>
<circle cx="318.8" cy="269.2" r="5" fill="#2563eb" opacity="0.75"/>
<circle cx="318.8" cy="269.2" r="5" fill="#f59e0b" opacity="0.75"/>
<circle cx="395.0" cy="233.0" r="5" fill="#2563eb" opacity="0.75"/>
<circle cx="151.0" cy="349.0" r="5" fill="#f59e0b" opacity="0.75"/>
<circle cx="395.0" cy="233.0" r="5" fill="#2563eb" opacity="0.75"/>
<circle cx="90.0" cy="378.0" r="5" fill="#f59e0b" opacity="0.75"/>
<circle cx="700.0" cy="137.3" r="5" fill="#2563eb" opacity="0.75"/>
<circle cx="700.0" cy="157.6" r="5" fill="#f59e0b" opacity="0.75"/>
<circle cx="456.0" cy="223.7" r="5" fill="#2563eb" opacity="0.75"/>
<circle cx="639.0" cy="154.7" r="5" fill="#f59e0b" opacity="0.75"/>
<circle cx="395.0" cy="219.9" r="5" fill="#2563eb" opacity="0.75"/>
<circle cx="517.0" cy="176.5" r="5" fill="#f59e0b" opacity="0.75"/>
<circle cx="700.0" cy="193.3" r="5" fill="#2563eb" opacity="0.75"/>
<circle cx="700.0" cy="178.5" r="5" fill="#f59e0b" opacity="0.75"/>
<circle cx="212.0" cy="178.5" r="5" fill="#2563eb" opacity="0.75"/>
<circle cx="273.0" cy="218.5" r="5" fill="#f59e0b" opacity="0.75"/>
<circle cx="700.0" cy="163.4" r="5" fill="#2563eb" opacity="0.75"/>
<circle cx="700.0" cy="169.2" r="5" fill="#f59e0b" opacity="0.75"/>
<circle cx="639.0" cy="193.8" r="5" fill="#2563eb" opacity="0.75"/>
<circle cx="639.0" cy="247.5" r="5" fill="#f59e0b" opacity="0.75"/>
<circle cx="395.0" cy="111.2" r="5" fill="#2563eb" opacity="0.75"/>
<circle cx="395.0" cy="204.0" r="5" fill="#f59e0b" opacity="0.75"/>
<circle cx="639.0" cy="151.8" r="5" fill="#2563eb" opacity="0.75"/>
<circle cx="90.0" cy="378.0" r="5" fill="#f59e0b" opacity="0.75"/>
<circle cx="700.0" cy="105.4" r="5" fill="#2563eb" opacity="0.75"/>
<circle cx="700.0" cy="159.1" r="5" fill="#f59e0b" opacity="0.75"/>
<circle cx="395.0" cy="144.0" r="5" fill="#2563eb" opacity="0.75"/>
<circle cx="212.0" cy="209.8" r="5" fill="#f59e0b" opacity="0.75"/>
<circle cx="212.0" cy="218.5" r="5" fill="#2563eb" opacity="0.75"/>
<circle cx="212.0" cy="236.5" r="5" fill="#f59e0b" opacity="0.75"/>
<circle cx="212.0" cy="122.8" r="5" fill="#2563eb" opacity="0.75"/>
<circle cx="212.0" cy="219.9" r="5" fill="#f59e0b" opacity="0.75"/>
<circle cx="212.0" cy="190.9" r="5" fill="#2563eb" opacity="0.75"/>
<circle cx="90.0" cy="378.0" r="5" fill="#f59e0b" opacity="0.75"/>
<circle cx="639.0" cy="193.3" r="5" fill="#2563eb" opacity="0.75"/>
<circle cx="639.0" cy="218.5" r="5" fill="#f59e0b" opacity="0.75"/>
<circle cx="578.0" cy="176.5" r="5" fill="#2563eb" opacity="0.75"/>
<circle cx="273.0" cy="243.7" r="5" fill="#f59e0b" opacity="0.75"/>
<circle cx="669.5" cy="173.6" r="5" fill="#2563eb" opacity="0.75"/>
<circle cx="639.0" cy="179.3" r="5" fill="#f59e0b" opacity="0.75"/>
<circle cx="639.0" cy="177.9" r="5" fill="#2563eb" opacity="0.75"/>
<circle cx="639.0" cy="199.7" r="5" fill="#f59e0b" opacity="0.75"/>
<circle cx="90.0" cy="280.0" r="5" fill="#2563eb" opacity="0.75"/>
<circle cx="578.0" cy="189.5" r="5" fill="#f59e0b" opacity="0.75"/>
<circle cx="700.0" cy="193.8" r="5" fill="#2563eb" opacity="0.75"/>
<circle cx="700.0" cy="173.6" r="5" fill="#f59e0b" opacity="0.75"/>
<circle cx="700.0" cy="150.3" r="5" fill="#2563eb" opacity="0.75"/>
<circle cx="700.0" cy="243.7" r="5" fill="#f59e0b" opacity="0.75"/>
<circle cx="639.0" cy="178.5" r="5" fill="#2563eb" opacity="0.75"/>
<circle cx="273.0" cy="218.5" r="5" fill="#f59e0b" opacity="0.75"/>
<circle cx="639.0" cy="172.1" r="5" fill="#2563eb" opacity="0.75"/>
<circle cx="657.3" cy="111.2" r="5" fill="#f59e0b" opacity="0.75"/>
<text x="395.0" y="425" text-anchor="middle" font-size="12">Topic-profile fit</text>
<text x="20" y="96" font-size="12" transform="rotate(-90 20,96)">Final score</text>
<circle cx="725" cy="88" r="5" fill="#2563eb"/><text x="737" y="92" font-size="12">Guardrailed</text>
<circle cx="725" cy="110" r="5" fill="#f59e0b"/><text x="737" y="114" font-size="12">Lightweight</text>
</svg>
