<svg xmlns="http://www.w3.org/2000/svg" width="920" height="420" viewBox="0 0 920 420" role="img">
<style>text{font-family:Inter,Arial,sans-serif;fill:#17202a} .muted{fill:#64748b}.axis{stroke:#cbd5e1;stroke-width:1}.grid{stroke:#e2e8f0;stroke-width:1}.guard{fill:#2563eb}.light{fill:#f59e0b}.positive{fill:#16a34a}.negative{fill:#dc2626}.line{stroke:#334155;stroke-width:1.5;fill:none}</style>
<text x="20" y="30" font-size="20" font-weight="700">Guardrail Improvement Distribution</text>
<text x="20" y="52" font-size="12" class="muted">Histogram of paired score deltas: guardrailed minus lightweight</text>
<line class="axis" x1="95" y1="342" x2="815" y2="342"/>
<line class="axis" x1="95" y1="82" x2="95" y2="342"/>
<line class="grid" x1="95" y1="342.0" x2="815" y2="342.0"/>
<text x="59" y="346.0" font-size="10" class="muted">0</text>
<line class="grid" x1="95" y1="277.0" x2="815" y2="277.0"/>
<text x="59" y="281.0" font-size="10" class="muted">75</text>
<line class="grid" x1="95" y1="212.0" x2="815" y2="212.0"/>
<text x="59" y="216.0" font-size="10" class="muted">150</text>
<line class="grid" x1="95" y1="147.0" x2="815" y2="147.0"/>
<text x="59" y="151.0" font-size="10" class="muted">225</text>
<line class="grid" x1="95" y1="82.0" x2="815" y2="82.0"/>
<text x="59" y="86.0" font-size="10" class="muted">300</text>
<line x1="455.0" y1="82" x2="455.0" y2="342" stroke="#334155" stroke-dasharray="4 4"/>
<text x="461.0" y="96" font-size="10" class="muted">0 delta</text>
<rect x="100.0" y="341.1" width="70.0" height="0.9" rx="3" fill="#dc2626" opacity="0.75"/>
<text x="135.0" y="335.1" text-anchor="middle" font-size="10">1</text>
<text x="135.0" y="360" text-anchor="middle" font-size="10">-1.00</text>
<rect x="180.0" y="331.6" width="70.0" height="10.4" rx="3" fill="#dc2626" opacity="0.75"/>
<text x="215.0" y="325.6" text-anchor="middle" font-size="10">12</text>
<text x="215.0" y="360" text-anchor="middle" font-size="10">-0.50</text>
<rect x="260.0" y="317.7" width="70.0" height="24.3" rx="3" fill="#dc2626" opacity="0.75"/>
<text x="295.0" y="311.7" text-anchor="middle" font-size="10">28</text>
<text x="295.0" y="360" text-anchor="middle" font-size="10">-0.25</text>
<rect x="340.0" y="339.4" width="70.0" height="2.6" rx="3" fill="#dc2626" opacity="0.75"/>
<text x="375.0" y="333.4" text-anchor="middle" font-size="10">3</text>
<text x="375.0" y="360" text-anchor="middle" font-size="10">-0.10</text>
<rect x="420.0" y="340.3" width="70.0" height="1.7" rx="3" fill="#94a3b8" opacity="0.75"/>
<text x="455.0" y="334.3" text-anchor="middle" font-size="10">2</text>
<text x="455.0" y="360" text-anchor="middle" font-size="10">-0.03</text>
<rect x="500.0" y="329.0" width="70.0" height="13.0" rx="3" fill="#16a34a" opacity="0.75"/>
<text x="535.0" y="323.0" text-anchor="middle" font-size="10">15</text>
<text x="535.0" y="360" text-anchor="middle" font-size="10">+0.03</text>
<rect x="580.0" y="284.8" width="70.0" height="57.2" rx="3" fill="#16a34a" opacity="0.75"/>
<text x="615.0" y="278.8" text-anchor="middle" font-size="10">66</text>
<text x="615.0" y="360" text-anchor="middle" font-size="10">+0.10</text>
<rect x="660.0" y="248.4" width="70.0" height="93.6" rx="3" fill="#16a34a" opacity="0.75"/>
<text x="695.0" y="242.4" text-anchor="middle" font-size="10">108</text>
<text x="695.0" y="360" text-anchor="middle" font-size="10">+0.25</text>
<rect x="740.0" y="82.0" width="70.0" height="260.0" rx="3" fill="#16a34a" opacity="0.75"/>
<text x="775.0" y="76.0" text-anchor="middle" font-size="10">300</text>
<text x="775.0" y="360" text-anchor="middle" font-size="10">+0.50</text>
<text x="455.0" y="390" text-anchor="middle" font-size="12">Paired delta bins</text>
<text x="20" y="90" font-size="12" transform="rotate(-90 20,90)">Number of paired cases</text>
</svg>
