<svg xmlns="http://www.w3.org/2000/svg" width="1080" height="540" viewBox="0 0 1080 540" role="img">
<style>text{font-family:Inter,Arial,sans-serif;fill:#17202a} .muted{fill:#64748b}.axis{stroke:#cbd5e1;stroke-width:1}.grid{stroke:#e2e8f0;stroke-width:1}.guard{fill:#2563eb}.light{fill:#f59e0b}.positive{fill:#16a34a}.negative{fill:#dc2626}.line{stroke:#334155;stroke-width:1.5;fill:none}</style>
<text x="20" y="30" font-size="20" font-weight="700">Score Distributions</text>
<text x="20" y="52" font-size="12" class="muted">Distribution of final case scores by method and target mode</text>
<text x="20" y="84" font-size="11" font-weight="700">Legend</text>
<rect x="78" y="74" width="18" height="12" fill="#2563eb" opacity="0.65" rx="2"/><text x="104" y="84" font-size="11">Guardrailed IQR box</text>
<rect x="250" y="74" width="18" height="12" fill="#f59e0b" opacity="0.65" rx="2"/><text x="276" y="84" font-size="11">Lightweight IQR box</text>
<line x1="430" y1="80" x2="452" y2="80" stroke="#17202a" stroke-width="2"/><text x="462" y="84" font-size="11">Median score</text>
<circle cx="585" cy="80" r="4" fill="#ffffff" stroke="#17202a" stroke-width="1.5"/><text x="598" y="84" font-size="11">Mean score</text>
<line x1="714" y1="72" x2="714" y2="88" stroke="#2563eb" stroke-width="1.5"/><text x="726" y="84" font-size="11" class="muted">Vertical line = observed score range</text>
<line class="grid" x1="120" y1="450.0" x2="920" y2="450.0"/>
<text x="78" y="454.0" font-size="11" class="muted">0%</text>
<line class="grid" x1="120" y1="390.0" x2="920" y2="390.0"/>
<text x="78" y="394.0" font-size="11" class="muted">20%</text>
<line class="grid" x1="120" y1="330.0" x2="920" y2="330.0"/>
<text x="78" y="334.0" font-size="11" class="muted">40%</text>
<line class="grid" x1="120" y1="270.0" x2="920" y2="270.0"/>
<text x="78" y="274.0" font-size="11" class="muted">60%</text>
<line class="grid" x1="120" y1="210.0" x2="920" y2="210.0"/>
<text x="78" y="214.0" font-size="11" class="muted">80%</text>
<line class="grid" x1="120" y1="150.0" x2="920" y2="150.0"/>
<text x="78" y="154.0" font-size="11" class="muted">100%</text>
<line x1="148.0" y1="354.0" x2="148.0" y2="162.0" stroke="#2563eb" stroke-width="1.5"/>
<rect x="137.0" y="168.9" width="22" height="27.6" fill="#2563eb" opacity="0.55" rx="3"/>
<line x1="135.0" y1="178.2" x2="161.0" y2="178.2" stroke="#17202a" stroke-width="1.5"/>
<circle cx="148.0" cy="192.7" r="3.8" fill="#ffffff" stroke="#17202a" stroke-width="1.2"/>
<text x="148.0" y="172.2" text-anchor="middle" font-size="9">91%</text>
<line x1="184.0" y1="218.1" x2="184.0" y2="164.1" stroke="#f59e0b" stroke-width="1.5"/>
<rect x="173.0" y="166.2" width="22" height="12.1" fill="#f59e0b" opacity="0.55" rx="3"/>
<line x1="171.0" y1="172.5" x2="197.0" y2="172.5" stroke="#17202a" stroke-width="1.5"/>
<circle cx="184.0" cy="175.4" r="3.8" fill="#ffffff" stroke="#17202a" stroke-width="1.2"/>
<text x="184.0" y="166.5" text-anchor="middle" font-size="9">92%</text>
<text x="186.7" y="470" text-anchor="middle" font-size="11">PBAR</text>
<line x1="281.33333333333337" y1="280.5" x2="281.33333333333337" y2="164.1" stroke="#2563eb" stroke-width="1.5"/>
<rect x="270.33333333333337" y="171.0" width="22" height="13.9" fill="#2563eb" opacity="0.55" rx="3"/>
<line x1="268.33333333333337" y1="172.8" x2="294.33333333333337" y2="172.8" stroke="#17202a" stroke-width="1.5"/>
<circle cx="281.33333333333337" cy="184.3" r="3.8" fill="#ffffff" stroke="#17202a" stroke-width="1.2"/>
<text x="281.3" y="166.8" text-anchor="middle" font-size="9">92%</text>
<line x1="317.33333333333337" y1="450.0" x2="317.33333333333337" y2="164.1" stroke="#f59e0b" stroke-width="1.5"/>
<rect x="306.33333333333337" y="172.5" width="22" height="39.9" fill="#f59e0b" opacity="0.55" rx="3"/>
<line x1="304.33333333333337" y1="180.6" x2="330.33333333333337" y2="180.6" stroke="#17202a" stroke-width="1.5"/>
<circle cx="317.33333333333337" cy="224.5" r="3.8" fill="#ffffff" stroke="#17202a" stroke-width="1.2"/>
<text x="317.3" y="174.6" text-anchor="middle" font-size="9">90%</text>
<text x="320.0" y="470" text-anchor="middle" font-size="11">TBAR</text>
<line x1="414.6666666666667" y1="271.5" x2="414.6666666666667" y2="162.0" stroke="#2563eb" stroke-width="1.5"/>
<rect x="403.6666666666667" y="172.0" width="22" height="27.4" fill="#2563eb" opacity="0.55" rx="3"/>
<line x1="401.6666666666667" y1="180.8" x2="427.6666666666667" y2="180.8" stroke="#17202a" stroke-width="1.5"/>
<circle cx="414.6666666666667" cy="194.4" r="3.8" fill="#ffffff" stroke="#17202a" stroke-width="1.2"/>
<text x="414.7" y="174.8" text-anchor="middle" font-size="9">90%</text>
<line x1="450.6666666666667" y1="416.4" x2="450.6666666666667" y2="169.5" stroke="#f59e0b" stroke-width="1.5"/>
<rect x="439.6666666666667" y="192.2" width="22" height="92.8" fill="#f59e0b" opacity="0.55" rx="3"/>
<line x1="437.6666666666667" y1="267.8" x2="463.6666666666667" y2="267.8" stroke="#17202a" stroke-width="1.5"/>
<circle cx="450.6666666666667" cy="258.1" r="3.8" fill="#ffffff" stroke="#17202a" stroke-width="1.2"/>
<text x="450.7" y="261.8" text-anchor="middle" font-size="9">61%</text>
<text x="453.3" y="470" text-anchor="middle" font-size="11">Epistemic Boundary</text>
<line x1="548.0" y1="450.0" x2="548.0" y2="163.2" stroke="#2563eb" stroke-width="1.5"/>
<rect x="537.0" y="168.0" width="22" height="6.3" fill="#2563eb" opacity="0.55" rx="3"/>
<line x1="535.0" y1="170.1" x2="561.0" y2="170.1" stroke="#17202a" stroke-width="1.5"/>
<circle cx="548.0" cy="194.2" r="3.8" fill="#ffffff" stroke="#17202a" stroke-width="1.2"/>
<text x="548.0" y="164.1" text-anchor="middle" font-size="9">93%</text>
<line x1="584.0" y1="375.0" x2="584.0" y2="164.1" stroke="#f59e0b" stroke-width="1.5"/>
<rect x="573.0" y="171.4" width="22" height="21.4" fill="#f59e0b" opacity="0.55" rx="3"/>
<line x1="571.0" y1="175.5" x2="597.0" y2="175.5" stroke="#17202a" stroke-width="1.5"/>
<circle cx="584.0" cy="202.5" r="3.8" fill="#ffffff" stroke="#17202a" stroke-width="1.2"/>
<text x="584.0" y="169.5" text-anchor="middle" font-size="9">92%</text>
<text x="586.7" y="470" text-anchor="middle" font-size="11">SFAM</text>
<line x1="681.3333333333334" y1="450.0" x2="681.3333333333334" y2="162.0" stroke="#2563eb" stroke-width="1.5"/>
<rect x="670.3333333333334" y="171.9" width="22" height="158.1" fill="#2563eb" opacity="0.55" rx="3"/>
<line x1="668.3333333333334" y1="243.3" x2="694.3333333333334" y2="243.3" stroke="#17202a" stroke-width="1.5"/>
<circle cx="681.3333333333334" cy="252.1" r="3.8" fill="#ffffff" stroke="#17202a" stroke-width="1.2"/>
<text x="681.3" y="237.3" text-anchor="middle" font-size="9">69%</text>
<line x1="717.3333333333334" y1="450.0" x2="717.3333333333334" y2="164.1" stroke="#f59e0b" stroke-width="1.5"/>
<rect x="706.3333333333334" y="331.4" width="22" height="92.5" fill="#f59e0b" opacity="0.55" rx="3"/>
<line x1="704.3333333333334" y1="399.4" x2="730.3333333333334" y2="399.4" stroke="#17202a" stroke-width="1.5"/>
<circle cx="717.3333333333334" cy="356.3" r="3.8" fill="#ffffff" stroke="#17202a" stroke-width="1.2"/>
<text x="717.3" y="393.4" text-anchor="middle" font-size="9">17%</text>
<text x="720.0" y="470" text-anchor="middle" font-size="11">SC</text>
<line x1="814.6666666666667" y1="413.4" x2="814.6666666666667" y2="162.0" stroke="#2563eb" stroke-width="1.5"/>
<rect x="803.6666666666667" y="174.0" width="22" height="131.1" fill="#2563eb" opacity="0.55" rx="3"/>
<line x1="801.6666666666667" y1="186.0" x2="827.6666666666667" y2="186.0" stroke="#17202a" stroke-width="1.5"/>
<circle cx="814.6666666666667" cy="235.8" r="3.8" fill="#ffffff" stroke="#17202a" stroke-width="1.2"/>
<text x="814.7" y="180.0" text-anchor="middle" font-size="9">88%</text>
<line x1="850.6666666666667" y1="450.0" x2="850.6666666666667" y2="165.0" stroke="#f59e0b" stroke-width="1.5"/>
<rect x="839.6666666666667" y="385.6" width="22" height="41.6" fill="#f59e0b" opacity="0.55" rx="3"/>
<line x1="837.6666666666667" y1="412.8" x2="863.6666666666667" y2="412.8" stroke="#17202a" stroke-width="1.5"/>
<circle cx="850.6666666666667" cy="379.8" r="3.8" fill="#ffffff" stroke="#17202a" stroke-width="1.2"/>
<text x="850.7" y="406.8" text-anchor="middle" font-size="9">12%</text>
<text x="853.3" y="470" text-anchor="middle" font-size="11">PG</text>
<text x="520.0" y="512" text-anchor="middle" font-size="12">Evaluation dimension</text>
<text x="44" y="138" font-size="12">Case score</text>
</svg>
